<?xml version="1.0" encoding="utf-8"?>
<!-- Generator: Adobe Illustrator 17.0.0, SVG Export Plug-In . SVG Version: 6.00 Build 0)  -->
<!DOCTYPE svg PUBLIC "-//W3C//DTD SVG 1.1//EN" "http://www.w3.org/Graphics/SVG/1.1/DTD/svg11.dtd">
<svg version="1.1" id="Livello_1" xmlns="http://www.w3.org/2000/svg" xmlns:xlink="http://www.w3.org/1999/xlink" x="0px" y="0px"
	 width="130px" height="60px" viewBox="0 0 130 60" enable-background="new 0 0 130 60" xml:space="preserve">
<g>
	<path fill="#9C9B9B" d="M50.281,2.413c-0.001,0-0.001,0-0.002,0c-0.685,0-1.603,0.029-2.412,0.055
		c-0.641,0.021-1.194,0.038-1.52,0.038c-0.331,0-0.865-0.016-1.483-0.035c-0.88-0.026-1.974-0.059-2.95-0.059
		c-0.305,0-0.874,0-0.874,0.468c0,0.468,0.522,0.468,0.718,0.468c0.482,0,0.965,0.036,1.179,0.09
		c0.874,0.185,1.131,0.531,1.194,1.608c0.062,0.993,0.062,1.85,0.062,6.607l0,9.196c0,5.965,0.001,8.959-2.287,11.276
		c-0.548,0.548-1.01,0.915-1.454,1.153c-0.535,0.283-0.787,0.447-0.787,0.728c0,0.274,0.222,0.437,0.437,0.437
		c0.211,0,0.492-0.083,0.705-0.205c0.648-0.308,1.164-0.566,1.578-0.821c2.716-1.669,4.629-3.8,5.386-5.997
		c0.681-1.908,0.76-4.103,0.76-5.589c0-0.813-0.025-1.606-0.05-2.372c-0.023-0.713-0.044-1.387-0.044-2.03v-5.776
		c0-4.757,0-5.614,0.062-6.608c0.062-1.087,0.306-1.477,1.001-1.606c0.375-0.062,0.546-0.091,0.873-0.091
		c0.224,0,0.749,0,0.749-0.468C51.124,2.413,50.555,2.413,50.281,2.413"/>
	<path fill="#F29100" d="M73.446,25.453c-0.305,0-0.774-0.021-1.268-0.12c-0.675-0.161-1.514-0.677-2.618-3.293
		c-1.122-2.664-3.227-7.945-4.919-12.188c-1.339-3.358-2.495-6.259-2.825-7.014c-0.283-0.651-0.517-1.112-0.952-1.112
		c-0.46,0-0.687,0.493-1.048,1.367L51.98,22.699c-0.662,1.656-1.232,2.527-2.503,2.693c-0.235,0.029-0.662,0.061-0.944,0.061
		c-0.465,0-0.562,0.238-0.562,0.437c0,0.5,0.527,0.5,0.781,0.5c1.116,0,2.251-0.043,3.003-0.072
		c0.334-0.013,0.576-0.022,0.681-0.022c0.476,0,1.059,0.023,1.622,0.046c0.58,0.024,1.18,0.048,1.688,0.048
		c0.197,0,0.718,0,0.718-0.5c0-0.437-0.426-0.437-0.655-0.437h-0.468c-0.935,0-1.061-0.394-1.061-0.781
		c0-0.336,0.142-1.053,0.456-1.838l1.688-4.471c0.033-0.098,0.052-0.115,0.054-0.116c0,0,0.011-0.006,0.049-0.006h6.962
		c0.076,0,0.103,0.013,0.137,0.098l2.5,6.624c0.048,0.116,0.051,0.226,0.007,0.316c-0.039,0.08-0.103,0.127-0.154,0.145
		c-0.203,0.021-0.586,0.072-0.586,0.466c0,0.378,0.432,0.401,0.979,0.43l0.14,0.007c2.5,0.063,4.8,0.063,5.905,0.063
		c1.067,0,1.624-0.022,1.624-0.5C74.039,25.453,73.608,25.453,73.446,25.453 M62.85,16.306h-5.637l2.855-7.635L62.85,16.306z"/>
	<path fill="#F29100" d="M90.866,20.458c-0.282,0-0.348,0.236-0.405,0.547c-0.091,0.549-0.488,1.9-1.13,2.572
		c-1.314,1.347-3.355,1.533-5.365,1.533c-3.118,0-5.985-1.224-8.072-3.447c-1.973-2.101-3.104-4.975-3.104-7.885
		c0-2.677,0.33-5.731,2.781-8.081c0.573-0.557,2.319-2.252,7.115-2.252c2.855,0,5.163,0.882,6.183,1.757
		c0.764,0.647,1.278,1.898,1.278,3.113c0,0.351,0,0.749,0.343,0.749c0.3,0,0.347-0.336,0.374-0.743
		c0.013-0.198,0.021-0.62,0.03-1.108c0.012-0.673,0.028-1.511,0.064-2.109c0.038-0.683,0.087-1.088,0.12-1.357
		c0.022-0.177,0.036-0.294,0.036-0.397c0-0.275-0.147-0.406-0.494-0.437c-0.967-0.061-1.947-0.241-3.081-0.45l-0.092-0.017
		c-1.849-0.34-3.793-0.376-4.544-0.376c-4.186,0-7.322,1.102-9.588,3.368c-2.598,2.598-3.524,6.141-3.524,8.589
		c0,3.911,1.281,7.044,3.809,9.311v0c2.578,2.317,5.871,3.396,10.365,3.396c1.857,0,4.318-0.19,5.658-0.726
		c0.589-0.262,0.67-0.352,0.863-0.965c0.316-1.073,0.69-3.786,0.69-4.022C91.178,20.663,91.065,20.458,90.866,20.458"/>
	<path fill="#868686" d="M22.97,45.314c0,1.213-0.669,1.909-1.784,1.909c-0.696,0-1.293-0.33-1.73-0.892l0.357-0.571
		c0.393,0.473,0.883,0.722,1.365,0.722c0.687,0,1.07-0.41,1.07-1.186V41.63h-2.23v-0.687h2.952V45.314"/>
	<path fill="#868686" d="M32.889,44.065c0,1.757-1.445,3.157-3.264,3.157c-1.829,0-3.273-1.4-3.273-3.157
		c0-1.766,1.445-3.14,3.273-3.14C31.444,40.926,32.889,42.308,32.889,44.065 M27.073,44.065c0,1.373,1.159,2.471,2.551,2.471
		c1.391,0,2.533-1.097,2.533-2.471c0-1.374-1.142-2.462-2.533-2.462C28.233,41.604,27.073,42.692,27.073,44.065z"/>
	<path fill="#868686" d="M39.052,40.944c1.258,0,2.016,0.58,2.016,1.561c0,0.731-0.419,1.258-1.151,1.409
		c0.901,0.134,1.427,0.722,1.427,1.579c0,1.061-0.838,1.695-2.247,1.695h-2.676v-6.243H39.052 M37.135,43.637h1.882
		c0.838,0,1.329-0.366,1.329-1.017c0-0.633-0.491-0.99-1.329-0.99h-1.882V43.637z M37.135,46.509h1.882
		c1.017,0,1.605-0.401,1.605-1.115c0-0.678-0.589-1.079-1.605-1.079h-1.882V46.509z"/>
	<path fill="#868686" d="M48.873,41.497l-0.303,0.669c-0.562-0.374-1.222-0.526-1.721-0.526c-0.803,0-1.329,0.303-1.329,0.83
		c0,1.605,3.514,0.767,3.505,3.032c0,1.044-0.919,1.712-2.257,1.712c-0.91,0-1.802-0.392-2.39-0.954l0.321-0.642
		c0.58,0.562,1.374,0.883,2.078,0.883c0.901,0,1.463-0.366,1.463-0.963c0.009-1.641-3.505-0.767-3.505-3.006
		c0-0.981,0.865-1.614,2.158-1.614C47.615,40.917,48.356,41.149,48.873,41.497"/>
	<path fill="#F29100" d="M53.19,45.608l-0.696,1.579h-0.758l2.8-6.243h0.74l2.792,6.243h-0.776l-0.696-1.579H53.19 M54.885,41.755
		l-1.391,3.166h2.801L54.885,41.755z"/>
	<path fill="#F29100" d="M66.079,41.836l-0.428,0.544c-0.482-0.49-1.159-0.785-1.846-0.785c-1.409,0-2.542,1.088-2.542,2.462
		c0,1.365,1.133,2.462,2.542,2.462c0.687,0,1.356-0.285,1.846-0.749l0.437,0.491c-0.615,0.58-1.454,0.963-2.319,0.963
		c-1.802,0-3.229-1.4-3.229-3.166c0-1.748,1.445-3.131,3.255-3.131C64.652,40.926,65.481,41.274,66.079,41.836"/>
	<path fill="#F29100" d="M70.12,45.608l-0.696,1.579h-0.758l2.801-6.243h0.74l2.792,6.243h-0.776l-0.696-1.579H70.12 M71.815,41.755
		l-1.391,3.166h2.8L71.815,41.755z"/>
	<path fill="#F29100" d="M80.734,40.944c1.82,0,3.211,1.347,3.211,3.122c0,1.775-1.4,3.122-3.238,3.122H78.21v-6.243H80.734
		 M78.924,46.509h1.82c1.391,0,2.48-1.043,2.48-2.435c0-1.4-1.106-2.444-2.506-2.444h-1.793V46.509z"/>
	<polyline fill="#F29100" points="88.191,41.63 88.191,43.682 91.34,43.682 91.34,44.369 88.191,44.369 88.191,46.509 91.83,46.509 
		91.83,47.187 87.478,47.187 87.478,40.944 91.714,40.944 91.714,41.63 88.191,41.63 	"/>
	<polyline fill="#F29100" points="101.169,47.187 101.16,42.041 98.886,46.527 98.458,46.527 96.192,42.041 96.192,47.187 
		95.515,47.187 95.515,40.944 96.397,40.944 98.681,45.439 100.955,40.944 101.829,40.944 101.829,47.187 101.169,47.187 	"/>
	<polyline fill="#F29100" points="108.171,47.187 107.467,47.187 107.467,45.073 105.05,40.944 105.79,40.944 107.815,44.199 
		109.813,40.944 110.544,40.944 108.171,45.047 108.171,47.187 	"/>
	<path fill="#868686" d="M39.971,56.198c0,0.428,0,0.781,0.022,0.968c0.013,0.129,0.04,0.227,0.174,0.245
		c0.062,0.009,0.161,0.018,0.201,0.018c0.027,0,0.036,0.013,0.036,0.027c0,0.022-0.022,0.036-0.071,0.036
		c-0.245,0-0.526-0.013-0.548-0.013c-0.022,0-0.303,0.013-0.437,0.013c-0.049,0-0.071-0.009-0.071-0.036
		c0-0.013,0.009-0.027,0.036-0.027c0.04,0,0.094-0.009,0.134-0.018c0.089-0.018,0.111-0.116,0.129-0.245
		c0.022-0.187,0.022-0.54,0.022-0.968v-0.785c0-0.696,0-0.821-0.009-0.963c-0.009-0.152-0.053-0.227-0.152-0.25
		c-0.049-0.013-0.107-0.018-0.138-0.018c-0.018,0-0.036-0.009-0.036-0.027c0-0.027,0.022-0.036,0.071-0.036
		c0.147,0,0.428,0.013,0.45,0.013c0.022,0,0.303-0.013,0.437-0.013c0.049,0,0.071,0.009,0.071,0.036
		c0,0.018-0.018,0.027-0.036,0.027c-0.031,0-0.058,0.004-0.112,0.014c-0.12,0.022-0.156,0.098-0.165,0.254
		c-0.009,0.143-0.009,0.267-0.009,0.963V56.198"/>
	<path fill="#868686" d="M43.401,56.198c0,0.428,0,0.781,0.022,0.968c0.013,0.129,0.04,0.227,0.174,0.245
		c0.062,0.009,0.161,0.018,0.201,0.018c0.027,0,0.036,0.013,0.036,0.027c0,0.022-0.022,0.036-0.071,0.036
		c-0.245,0-0.526-0.013-0.549-0.013c-0.022,0-0.303,0.013-0.437,0.013c-0.049,0-0.071-0.009-0.071-0.036
		c0-0.013,0.009-0.027,0.036-0.027c0.04,0,0.094-0.009,0.134-0.018c0.089-0.018,0.111-0.116,0.129-0.245
		c0.022-0.187,0.022-0.54,0.022-0.968v-1.886l-0.66,0.009c-0.277,0.004-0.384,0.036-0.455,0.143
		c-0.049,0.076-0.063,0.107-0.076,0.138c-0.013,0.035-0.027,0.045-0.045,0.045c-0.013,0-0.022-0.014-0.022-0.04
		c0-0.044,0.089-0.428,0.098-0.464c0.009-0.027,0.027-0.085,0.045-0.085c0.031,0,0.076,0.045,0.196,0.054
		c0.129,0.013,0.299,0.022,0.352,0.022h1.672c0.285,0,0.406-0.044,0.442-0.044c0.022,0,0.022,0.027,0.022,0.054
		c0,0.134-0.013,0.441-0.013,0.49c0,0.04-0.013,0.058-0.031,0.058c-0.022,0-0.031-0.013-0.036-0.076l-0.004-0.049
		c-0.018-0.134-0.12-0.236-0.549-0.245l-0.562-0.009V56.198"/>
	<path fill="#868686" d="M46.054,53.924c-0.036-0.04-0.04-0.054-0.04-0.076c0-0.013,0.022-0.027,0.04-0.027
		c0.071,0,0.241,0.053,0.312,0.08c0.054,0.027,0.076,0.049,0.076,0.116c0,0.316-0.227,0.691-0.383,0.879
		c-0.018,0.027-0.036,0.036-0.058,0.036c-0.009,0-0.022-0.009-0.022-0.022c0-0.013,0.004-0.027,0.018-0.058
		c0.067-0.143,0.147-0.383,0.147-0.638C46.143,54.076,46.085,53.96,46.054,53.924"/>
	<path fill="#868686" d="M47.879,57.434c-0.062-0.031-0.067-0.049-0.067-0.17c0-0.223,0.018-0.401,0.022-0.473
		c0.004-0.049,0.013-0.071,0.036-0.071c0.027,0,0.031,0.013,0.031,0.049c0,0.04,0,0.102,0.013,0.165
		c0.067,0.33,0.361,0.455,0.66,0.455c0.428,0,0.638-0.307,0.638-0.593c0-0.308-0.129-0.486-0.513-0.803l-0.201-0.165
		c-0.473-0.388-0.58-0.664-0.58-0.968c0-0.477,0.357-0.803,0.923-0.803c0.174,0,0.303,0.018,0.415,0.045
		c0.085,0.018,0.121,0.022,0.156,0.022s0.044,0.009,0.044,0.031c0,0.022-0.018,0.169-0.018,0.473c0,0.071-0.009,0.103-0.031,0.103
		c-0.027,0-0.031-0.022-0.036-0.058c-0.004-0.054-0.031-0.174-0.058-0.223c-0.027-0.049-0.147-0.237-0.557-0.237
		c-0.308,0-0.548,0.192-0.548,0.517c0,0.254,0.125,0.406,0.544,0.749l0.125,0.098c0.526,0.415,0.651,0.691,0.651,1.048
		c0,0.183-0.071,0.522-0.379,0.74c-0.192,0.134-0.433,0.187-0.673,0.187C48.267,57.554,48.062,57.523,47.879,57.434"/>
	<path fill="#868686" d="M53.94,55.413c0-0.696,0-0.821-0.009-0.963c-0.009-0.152-0.044-0.223-0.192-0.254
		c-0.036-0.009-0.111-0.014-0.152-0.014c-0.018,0-0.036-0.009-0.036-0.027c0-0.027,0.022-0.036,0.071-0.036
		c0.201,0,0.482,0.013,0.504,0.013c0.031,0,0.919,0,1.021-0.004c0.085-0.004,0.156-0.013,0.192-0.022
		c0.022-0.004,0.04-0.022,0.062-0.022c0.013,0,0.018,0.018,0.018,0.04c0,0.031-0.022,0.085-0.036,0.209
		c-0.004,0.045-0.013,0.241-0.022,0.295c-0.004,0.022-0.013,0.049-0.031,0.049c-0.027,0-0.036-0.022-0.036-0.058
		c0-0.031-0.005-0.107-0.027-0.161c-0.031-0.071-0.076-0.125-0.317-0.152c-0.076-0.009-0.562-0.013-0.611-0.013
		c-0.018,0-0.027,0.013-0.027,0.044v1.231c0,0.031,0.004,0.045,0.027,0.045c0.058,0,0.607,0,0.709-0.009
		c0.107-0.009,0.17-0.018,0.21-0.063c0.031-0.036,0.049-0.058,0.067-0.058c0.013,0,0.023,0.009,0.023,0.036
		c0,0.027-0.023,0.103-0.036,0.25c-0.009,0.089-0.018,0.254-0.018,0.286c0,0.036,0,0.085-0.031,0.085
		c-0.022,0-0.031-0.018-0.031-0.04c0-0.044,0-0.089-0.018-0.147c-0.018-0.062-0.058-0.138-0.232-0.156
		c-0.12-0.013-0.562-0.022-0.638-0.022c-0.022,0-0.031,0.014-0.031,0.031v0.392c0,0.152-0.004,0.669,0,0.763
		c0.013,0.308,0.08,0.366,0.517,0.366c0.116,0,0.312,0,0.428-0.049c0.116-0.049,0.169-0.138,0.201-0.321
		c0.009-0.049,0.018-0.067,0.04-0.067c0.027,0,0.027,0.036,0.027,0.067c0,0.036-0.035,0.339-0.058,0.433
		c-0.031,0.116-0.067,0.116-0.241,0.116c-0.673,0-0.972-0.027-1.102-0.027c-0.022,0-0.303,0.013-0.437,0.013
		c-0.049,0-0.071-0.009-0.071-0.036c0-0.013,0.009-0.027,0.035-0.027c0.04,0,0.094-0.009,0.134-0.018
		c0.089-0.018,0.111-0.116,0.129-0.245c0.022-0.187,0.022-0.54,0.022-0.968V55.413"/>
	<path fill="#868686" d="M58.274,55.77l-0.714-1.199c-0.103-0.174-0.196-0.303-0.348-0.357c-0.071-0.022-0.161-0.031-0.187-0.031
		c-0.027,0-0.04-0.013-0.04-0.031c0-0.022,0.018-0.031,0.076-0.031c0.125,0,0.486,0.013,0.522,0.013c0.04,0,0.268-0.013,0.419-0.013
		c0.062,0,0.076,0.009,0.076,0.031c0,0.023-0.013,0.031-0.04,0.031c-0.027,0-0.085,0-0.12,0.014
		c-0.04,0.013-0.053,0.044-0.053,0.076c0,0.045,0.018,0.098,0.045,0.147c0.187,0.352,0.37,0.682,0.602,1.066
		c0.134-0.192,0.611-0.954,0.656-1.048c0.031-0.067,0.045-0.107,0.045-0.16c0-0.031-0.031-0.067-0.076-0.08
		c-0.045-0.014-0.107-0.014-0.134-0.014s-0.04-0.009-0.04-0.031c0-0.018,0.022-0.031,0.076-0.031c0.169,0,0.357,0.013,0.397,0.013
		c0.04,0,0.223-0.013,0.375-0.013c0.049,0,0.071,0.013,0.071,0.031c0,0.018-0.018,0.031-0.049,0.031
		c-0.031,0-0.098,0.004-0.147,0.022c-0.129,0.04-0.214,0.17-0.343,0.361l-0.718,1.079c0.085,0.138,0.847,1.436,0.941,1.557
		c0.071,0.094,0.134,0.161,0.263,0.201c0.062,0.018,0.129,0.027,0.156,0.027c0.022,0,0.036,0.009,0.036,0.027
		c0,0.022-0.022,0.036-0.062,0.036c-0.272,0-0.486-0.004-0.714-0.009c-0.116-0.009-0.138-0.013-0.138-0.036
		c0-0.018,0.009-0.031,0.027-0.036c0.022-0.009,0.063-0.053,0.022-0.125c-0.241-0.437-0.499-0.878-0.767-1.329l-0.696,1.182
		c-0.04,0.071-0.058,0.152-0.058,0.196c0,0.045,0.031,0.076,0.071,0.085c0.027,0.004,0.062,0.009,0.085,0.009
		c0.022,0,0.036,0.013,0.036,0.031c0,0.022-0.022,0.031-0.054,0.031c-0.107,0-0.388-0.013-0.428-0.013
		c-0.04,0-0.259,0.013-0.406,0.013c-0.036,0-0.045-0.013-0.045-0.031s0.013-0.031,0.036-0.031c0.036,0,0.103-0.004,0.169-0.022
		c0.134-0.036,0.223-0.134,0.37-0.361L58.274,55.77"/>
	<path fill="#868686" d="M61.695,55.413c0-0.696,0-0.821-0.009-0.963c-0.009-0.152-0.044-0.223-0.192-0.254
		c-0.035-0.009-0.111-0.014-0.152-0.014c-0.018,0-0.036-0.009-0.036-0.027c0-0.027,0.022-0.036,0.071-0.036
		c0.201,0,0.468,0.013,0.504,0.013c0.098,0,0.357-0.013,0.562-0.013c0.557,0,0.758,0.187,0.829,0.254
		c0.098,0.094,0.223,0.294,0.223,0.531c0,0.633-0.464,1.061-1.097,1.061c-0.022,0-0.071,0-0.094-0.004
		c-0.022,0-0.049-0.009-0.049-0.031c0-0.036,0.027-0.04,0.12-0.04c0.433,0,0.772-0.317,0.772-0.727c0-0.147-0.013-0.446-0.25-0.687
		c-0.236-0.241-0.508-0.223-0.611-0.223c-0.076,0-0.152,0.009-0.192,0.027c-0.027,0.009-0.036,0.04-0.036,0.085v1.833
		c0,0.428,0,0.781,0.022,0.968c0.013,0.129,0.04,0.227,0.174,0.245c0.063,0.009,0.161,0.018,0.201,0.018
		c0.027,0,0.035,0.013,0.035,0.027c0,0.022-0.022,0.036-0.071,0.036c-0.245,0-0.526-0.013-0.548-0.013
		c-0.013,0-0.294,0.013-0.428,0.013c-0.049,0-0.071-0.009-0.071-0.036c0-0.013,0.009-0.027,0.036-0.027
		c0.04,0,0.094-0.009,0.134-0.018c0.089-0.018,0.111-0.116,0.129-0.245c0.022-0.187,0.022-0.54,0.022-0.968V55.413"/>
	<path fill="#868686" d="M65.384,55.413c0-0.696,0-0.821-0.009-0.963c-0.009-0.152-0.044-0.223-0.192-0.254
		c-0.036-0.009-0.111-0.014-0.152-0.014c-0.018,0-0.036-0.009-0.036-0.027c0-0.027,0.022-0.036,0.071-0.036
		c0.201,0,0.482,0.013,0.504,0.013c0.031,0,0.919,0,1.021-0.004c0.085-0.004,0.156-0.013,0.192-0.022
		c0.022-0.004,0.04-0.022,0.062-0.022c0.013,0,0.018,0.018,0.018,0.04c0,0.031-0.022,0.085-0.036,0.209
		c-0.004,0.045-0.013,0.241-0.022,0.295c-0.004,0.022-0.013,0.049-0.031,0.049c-0.027,0-0.036-0.022-0.036-0.058
		c0-0.031-0.004-0.107-0.027-0.161c-0.031-0.071-0.076-0.125-0.317-0.152c-0.076-0.009-0.562-0.013-0.611-0.013
		c-0.018,0-0.027,0.013-0.027,0.044v1.231c0,0.031,0.004,0.045,0.027,0.045c0.058,0,0.606,0,0.709-0.009
		c0.107-0.009,0.17-0.018,0.21-0.063c0.031-0.036,0.049-0.058,0.067-0.058c0.013,0,0.022,0.009,0.022,0.036
		c0,0.027-0.022,0.103-0.036,0.25c-0.009,0.089-0.018,0.254-0.018,0.286c0,0.036,0,0.085-0.031,0.085
		c-0.022,0-0.031-0.018-0.031-0.04c0-0.044,0-0.089-0.018-0.147c-0.018-0.062-0.058-0.138-0.232-0.156
		c-0.12-0.013-0.562-0.022-0.638-0.022c-0.022,0-0.031,0.014-0.031,0.031v0.392c0,0.152-0.005,0.669,0,0.763
		c0.013,0.308,0.08,0.366,0.517,0.366c0.116,0,0.312,0,0.428-0.049c0.116-0.049,0.169-0.138,0.201-0.321
		c0.009-0.049,0.018-0.067,0.04-0.067c0.027,0,0.027,0.036,0.027,0.067c0,0.036-0.036,0.339-0.058,0.433
		c-0.031,0.116-0.067,0.116-0.241,0.116c-0.673,0-0.972-0.027-1.101-0.027c-0.022,0-0.303,0.013-0.437,0.013
		c-0.049,0-0.071-0.009-0.071-0.036c0-0.013,0.009-0.027,0.036-0.027c0.04,0,0.094-0.009,0.134-0.018
		c0.089-0.018,0.111-0.116,0.129-0.245c0.022-0.187,0.022-0.54,0.022-0.968V55.413"/>
	<path fill="#868686" d="M68.996,55.413c0-0.696,0-0.821-0.009-0.963c-0.009-0.152-0.045-0.223-0.192-0.254
		c-0.036-0.009-0.111-0.014-0.152-0.014c-0.018,0-0.036-0.009-0.036-0.027c0-0.027,0.022-0.036,0.071-0.036
		c0.201,0,0.482,0.013,0.504,0.013c0.049,0,0.388-0.013,0.526-0.013c0.281,0,0.58,0.027,0.816,0.196
		c0.111,0.08,0.308,0.299,0.308,0.607c0,0.33-0.138,0.66-0.54,1.03c0.366,0.468,0.669,0.865,0.928,1.142
		c0.241,0.254,0.433,0.303,0.544,0.321c0.085,0.013,0.147,0.013,0.174,0.013c0.022,0,0.04,0.013,0.04,0.027
		c0,0.027-0.027,0.036-0.107,0.036h-0.317c-0.25,0-0.361-0.022-0.477-0.085c-0.192-0.103-0.348-0.321-0.602-0.656
		c-0.187-0.245-0.397-0.544-0.486-0.66c-0.018-0.018-0.031-0.027-0.058-0.027l-0.548-0.009c-0.022,0-0.031,0.013-0.031,0.036v0.107
		c0,0.428,0,0.781,0.022,0.968c0.013,0.129,0.04,0.227,0.174,0.245c0.062,0.009,0.161,0.018,0.201,0.018
		c0.027,0,0.036,0.013,0.036,0.027c0,0.022-0.022,0.036-0.071,0.036c-0.245,0-0.526-0.013-0.548-0.013
		c-0.004,0-0.285,0.013-0.419,0.013c-0.049,0-0.071-0.009-0.071-0.036c0-0.013,0.009-0.027,0.036-0.027
		c0.04,0,0.094-0.009,0.134-0.018c0.089-0.018,0.112-0.116,0.129-0.245c0.022-0.187,0.022-0.54,0.022-0.968V55.413 M69.353,55.801
		c0,0.022,0.009,0.04,0.031,0.054c0.067,0.04,0.272,0.071,0.468,0.071c0.107,0,0.232-0.013,0.335-0.085
		c0.156-0.107,0.272-0.348,0.272-0.687c0-0.557-0.294-0.892-0.772-0.892c-0.134,0-0.254,0.013-0.299,0.027
		c-0.022,0.009-0.036,0.027-0.036,0.054V55.801z"/>
	<path fill="#868686" d="M73.626,56.198c0,0.428,0,0.781,0.022,0.968c0.013,0.129,0.04,0.227,0.174,0.245
		c0.062,0.009,0.161,0.018,0.201,0.018c0.027,0,0.036,0.013,0.036,0.027c0,0.022-0.023,0.036-0.071,0.036
		c-0.245,0-0.526-0.013-0.548-0.013c-0.022,0-0.303,0.013-0.437,0.013c-0.049,0-0.071-0.009-0.071-0.036
		c0-0.013,0.009-0.027,0.036-0.027c0.04,0,0.094-0.009,0.134-0.018c0.089-0.018,0.111-0.116,0.129-0.245
		c0.022-0.187,0.022-0.54,0.022-0.968v-0.785c0-0.696,0-0.821-0.009-0.963c-0.009-0.152-0.053-0.227-0.152-0.25
		c-0.049-0.013-0.107-0.018-0.138-0.018c-0.018,0-0.036-0.009-0.036-0.027c0-0.027,0.022-0.036,0.071-0.036
		c0.147,0,0.428,0.013,0.45,0.013c0.022,0,0.303-0.013,0.437-0.013c0.049,0,0.071,0.009,0.071,0.036
		c0,0.018-0.018,0.027-0.036,0.027c-0.031,0-0.058,0.004-0.111,0.014c-0.12,0.022-0.156,0.098-0.165,0.254
		c-0.009,0.143-0.009,0.267-0.009,0.963V56.198"/>
	<path fill="#868686" d="M76.105,55.413c0-0.696,0-0.821-0.009-0.963c-0.009-0.152-0.044-0.223-0.192-0.254
		c-0.036-0.009-0.112-0.014-0.152-0.014c-0.018,0-0.036-0.009-0.036-0.027c0-0.027,0.022-0.036,0.071-0.036
		c0.201,0,0.482,0.013,0.504,0.013c0.031,0,0.919,0,1.021-0.004c0.085-0.004,0.156-0.013,0.192-0.022
		c0.022-0.004,0.04-0.022,0.063-0.022c0.013,0,0.018,0.018,0.018,0.04c0,0.031-0.022,0.085-0.036,0.209
		c-0.004,0.045-0.013,0.241-0.022,0.295c-0.004,0.022-0.013,0.049-0.031,0.049c-0.027,0-0.036-0.022-0.036-0.058
		c0-0.031-0.004-0.107-0.027-0.161c-0.031-0.071-0.076-0.125-0.317-0.152c-0.076-0.009-0.562-0.013-0.611-0.013
		c-0.018,0-0.027,0.013-0.027,0.044v1.231c0,0.031,0.004,0.045,0.027,0.045c0.058,0,0.606,0,0.709-0.009
		c0.107-0.009,0.169-0.018,0.209-0.063c0.031-0.036,0.049-0.058,0.067-0.058c0.013,0,0.022,0.009,0.022,0.036
		c0,0.027-0.022,0.103-0.036,0.25c-0.009,0.089-0.018,0.254-0.018,0.286c0,0.036,0,0.085-0.031,0.085
		c-0.022,0-0.031-0.018-0.031-0.04c0-0.044,0-0.089-0.018-0.147c-0.018-0.062-0.058-0.138-0.232-0.156
		c-0.12-0.013-0.562-0.022-0.638-0.022c-0.023,0-0.031,0.014-0.031,0.031v0.392c0,0.152-0.004,0.669,0,0.763
		c0.013,0.308,0.08,0.366,0.517,0.366c0.116,0,0.312,0,0.428-0.049c0.116-0.049,0.17-0.138,0.201-0.321
		c0.009-0.049,0.018-0.067,0.04-0.067c0.027,0,0.027,0.036,0.027,0.067c0,0.036-0.036,0.339-0.058,0.433
		c-0.031,0.116-0.067,0.116-0.241,0.116c-0.674,0-0.972-0.027-1.101-0.027c-0.022,0-0.303,0.013-0.437,0.013
		c-0.049,0-0.071-0.009-0.071-0.036c0-0.013,0.009-0.027,0.036-0.027c0.04,0,0.094-0.009,0.134-0.018
		c0.089-0.018,0.111-0.116,0.129-0.245c0.022-0.187,0.022-0.54,0.022-0.968V55.413"/>
	<path fill="#868686" d="M79.838,56.885c0.009,0.366,0.053,0.482,0.174,0.517c0.085,0.022,0.183,0.027,0.223,0.027
		c0.022,0,0.036,0.009,0.036,0.027c0,0.027-0.027,0.036-0.08,0.036c-0.254,0-0.433-0.013-0.473-0.013
		c-0.04,0-0.228,0.013-0.428,0.013c-0.045,0-0.071-0.004-0.071-0.036c0-0.018,0.014-0.027,0.036-0.027
		c0.036,0,0.116-0.004,0.183-0.027c0.111-0.031,0.134-0.161,0.134-0.566l0.004-2.555c0-0.174,0.013-0.223,0.049-0.223
		c0.036,0,0.112,0.098,0.156,0.143c0.067,0.076,0.731,0.794,1.418,1.53c0.441,0.473,0.927,1.017,1.07,1.164l-0.049-2.265
		c-0.004-0.29-0.036-0.388-0.174-0.424c-0.08-0.018-0.183-0.022-0.219-0.022c-0.031,0-0.036-0.013-0.036-0.031
		c0-0.027,0.036-0.031,0.089-0.031c0.201,0,0.415,0.013,0.464,0.013c0.049,0,0.196-0.013,0.379-0.013c0.049,0,0.08,0.004,0.08,0.031
		c0,0.018-0.018,0.031-0.049,0.031c-0.023,0-0.054,0-0.107,0.014c-0.147,0.031-0.165,0.129-0.165,0.397l-0.009,2.613
		c0,0.294-0.009,0.316-0.04,0.316c-0.036,0-0.089-0.049-0.326-0.285c-0.049-0.044-0.691-0.7-1.164-1.208
		c-0.517-0.557-1.021-1.119-1.164-1.28L79.838,56.885"/>
	<path fill="#868686" d="M84.864,57.072c-0.433-0.388-0.54-0.896-0.54-1.32c0-0.299,0.103-0.82,0.499-1.218
		c0.268-0.268,0.673-0.477,1.36-0.477c0.178,0,0.428,0.013,0.647,0.054c0.17,0.031,0.312,0.058,0.455,0.067
		c0.049,0.004,0.058,0.022,0.058,0.049c0,0.036-0.013,0.089-0.022,0.25c-0.009,0.147-0.009,0.392-0.013,0.459
		c-0.004,0.067-0.013,0.094-0.04,0.094c-0.031,0-0.035-0.031-0.035-0.094c0-0.174-0.072-0.357-0.187-0.455
		c-0.156-0.134-0.499-0.254-0.892-0.254c-0.593,0-0.87,0.174-1.026,0.325c-0.326,0.312-0.401,0.709-0.401,1.164
		c0,0.852,0.655,1.632,1.61,1.632c0.335,0,0.598-0.04,0.776-0.223c0.094-0.098,0.152-0.294,0.165-0.375
		c0.009-0.049,0.018-0.067,0.044-0.067c0.022,0,0.032,0.031,0.032,0.067c0,0.031-0.054,0.419-0.098,0.571
		c-0.027,0.085-0.035,0.094-0.116,0.129c-0.178,0.071-0.517,0.103-0.803,0.103C85.667,57.554,85.217,57.389,84.864,57.072"/>
	<path fill="#868686" d="M89.315,55.413c0-0.696,0-0.821-0.009-0.963c-0.009-0.152-0.045-0.223-0.192-0.254
		c-0.036-0.009-0.111-0.014-0.152-0.014c-0.018,0-0.036-0.009-0.036-0.027c0-0.027,0.022-0.036,0.071-0.036
		c0.201,0,0.481,0.013,0.504,0.013c0.031,0,0.919,0,1.021-0.004c0.085-0.004,0.156-0.013,0.192-0.022
		c0.022-0.004,0.04-0.022,0.063-0.022c0.013,0,0.018,0.018,0.018,0.04c0,0.031-0.022,0.085-0.036,0.209
		c-0.004,0.045-0.013,0.241-0.022,0.295c-0.005,0.022-0.013,0.049-0.031,0.049c-0.027,0-0.036-0.022-0.036-0.058
		c0-0.031-0.005-0.107-0.027-0.161c-0.031-0.071-0.076-0.125-0.317-0.152c-0.076-0.009-0.562-0.013-0.611-0.013
		c-0.018,0-0.027,0.013-0.027,0.044v1.231c0,0.031,0.004,0.045,0.027,0.045c0.058,0,0.607,0,0.709-0.009
		c0.107-0.009,0.17-0.018,0.21-0.063c0.031-0.036,0.049-0.058,0.067-0.058c0.013,0,0.023,0.009,0.023,0.036
		c0,0.027-0.023,0.103-0.036,0.25c-0.009,0.089-0.018,0.254-0.018,0.286c0,0.036,0,0.085-0.031,0.085
		c-0.022,0-0.031-0.018-0.031-0.04c0-0.044,0-0.089-0.018-0.147c-0.018-0.062-0.058-0.138-0.232-0.156
		c-0.12-0.013-0.562-0.022-0.638-0.022c-0.022,0-0.031,0.014-0.031,0.031v0.392c0,0.152-0.004,0.669,0,0.763
		c0.014,0.308,0.08,0.366,0.517,0.366c0.116,0,0.312,0,0.428-0.049c0.116-0.049,0.169-0.138,0.201-0.321
		c0.009-0.049,0.018-0.067,0.04-0.067c0.027,0,0.027,0.036,0.027,0.067c0,0.036-0.036,0.339-0.058,0.433
		c-0.031,0.116-0.067,0.116-0.241,0.116c-0.673,0-0.972-0.027-1.101-0.027c-0.022,0-0.303,0.013-0.437,0.013
		c-0.049,0-0.071-0.009-0.071-0.036c0-0.013,0.009-0.027,0.036-0.027c0.04,0,0.094-0.009,0.134-0.018
		c0.089-0.018,0.111-0.116,0.129-0.245c0.022-0.187,0.022-0.54,0.022-0.968V55.413"/>
</g>
</svg>
